<svg id="Layer_3" enable-background="new 0 0 64 64" height="512" viewBox="0 0 64 64" width="512" xmlns="http://www.w3.org/2000/svg"><path d="m56.415 46.979-6.449-2.764c-3.7-1.586-6.751-4.249-8.823-7.701-.094-.155-.143-.332-.143-.514v-1c0-.3.134-.583.366-.773.231-.189.534-.265.83-.207l1.568.313c2.211.442 4.477.667 6.736.667.827 0 1.5-.673 1.5-1.5s-.673-1.5-1.5-1.5h-1.008c-1.571 0-3.141.193-4.666.575-1.278.319-2.641.084-3.738-.648l-.102-.068c-1.244-.829-1.986-2.215-1.986-3.71 0-2.246.742-4.473 2.09-6.269.815-1.086 1.818-1.991 2.982-2.69l7.173-4.304c.466-.279.755-.789.755-1.332 0-.857-.697-1.554-1.554-1.554h-.713c-.292 0-.577.082-.823.236l-.112.07c-4.585 2.865-8.168 6.991-10.363 11.931-.494 1.106-1.504 1.763-2.617 1.763-1.554 0-2.818-1.264-2.818-2.818v-8.112c0-1.142-.929-2.07-2.07-2.07-.41 0-.807.12-1.148.348l-.101.067c-1.053.702-1.681 1.875-1.681 3.14 0 .748.219 1.472.634 2.093l2.783 4.175c.381.572.583 1.238.583 1.926v.779c0 1.914-1.558 3.472-3.472 3.472-1.324 0-2.514-.736-3.105-1.92l-3.317-6.633-4.08-7.342c-.379-.682-1.099-1.105-1.878-1.105-1.185 0-2.148.963-2.148 2.148v.109c0 .332.079.664.227.96 2.33 4.661 5.765 8.777 9.935 11.904l.906.679c.583.438.932 1.136.932 1.867 0 1.286-1.047 2.333-2.333 2.333-1.222 0-2.425-.212-3.574-.629l-5.205-1.893c-2.697-.981-5.519-1.478-8.388-1.478-1.93 0-3.5 1.57-3.5 3.5s1.57 3.5 3.5 3.5c4.256 0 8.535-.386 12.716-1.146l2.845-.518c1.459-.264 2.94.362 3.764 1.599.836 1.255.836 2.876 0 4.131l-.497.746c-.438.656-1.086 1.165-1.826 1.434l-8.225 2.99c-.764.278-1.277 1.011-1.277 1.824 0 1.07.871 1.94 1.94 1.94.467 0 .897-.151 1.241-.426l7.299-5.84c.682-.545 1.501-.813 2.318-.813.954 0 1.903.366 2.625 1.088 1.068 1.067 1.383 2.658.802 4.052l-4.033 9.678c-.128.305-.192.629-.192.961v1.8c0 1.379 1.122 2.5 2.5 2.5s2.5-1.121 2.5-2.5v-11.176c0-1.833 1.492-3.324 3.325-3.324 1.433 0 2.701.914 3.154 2.273l2.958 8.872c.169.511.646.855 1.185.855h.128c.689 0 1.25-.561 1.25-1.25 0-.269-.088-.535-.249-.748-1.757-2.343-3.117-4.939-4.043-7.718l-.265-.795c-.362-1.086-.084-2.263.726-3.071.993-.993 2.519-1.169 3.712-.422l2.176 1.36c3.089 1.931 5.681 4.446 7.703 7.479.486.729 1.3 1.165 2.176 1.165h.449c1.442 0 2.615-1.174 2.615-2.616 0-1.047-.623-1.991-1.585-2.405zm-22.415-5.979c-3.309 0-6-2.691-6-6s2.691-6 6-6 6 2.691 6 6-2.691 6-6 6z"/><path d="m34 31c-2.206 0-4 1.794-4 4s1.794 4 4 4 4-1.794 4-4-1.794-4-4-4zm0 7v-2c.551 0 1-.448 1-1h2c0 1.654-1.346 3-3 3z"/><path d="m59.171 3c-.488 0-.947.19-1.293.536l-2.343 2.343c-.345.345-.535.804-.535 1.292 0 1.009.82 1.829 1.829 1.829.488 0 .947-.19 1.293-.536l2.343-2.343c.345-.345.535-.804.535-1.292 0-1.009-.82-1.829-1.829-1.829z"/><path d="m7.171 52c-.488 0-.948.19-1.293.535l-2.342 2.344c-.341.341-.536.811-.536 1.293 0 1.008.82 1.828 1.829 1.828.488 0 .948-.19 1.293-.535l2.342-2.344c.341-.341.536-.811.536-1.293 0-1.008-.82-1.828-1.829-1.828z"/><path d="m9.878 8.464c.346.346.805.536 1.293.536 1.009 0 1.829-.82 1.829-1.829 0-.488-.19-.947-.536-1.293l-2.343-2.343c-.345-.345-.804-.535-1.292-.535-1.009 0-1.829.82-1.829 1.829 0 .488.19.947.536 1.293z"/></svg>